<?xml version="1.0" encoding="UTF-8" standalone="no"?>
<svg
   xmlns:dc="http://purl.org/dc/elements/1.1/"
   xmlns:cc="http://creativecommons.org/ns#"
   xmlns:rdf="http://www.w3.org/1999/02/22-rdf-syntax-ns#"
   xmlns:svg="http://www.w3.org/2000/svg"
   xmlns="http://www.w3.org/2000/svg"
   id="svg3410"
   preserveAspectRatio="xMidYMid meet"
   viewBox="0 0 450.000000 450.000000"
   height="450.000000pt"
   width="450.000000pt"
   version="1.0">
  <defs
     id="defs3420" />
  <metadata
     id="metadata3412">
Created by potrace 1.13, written by Peter Selinger 2001-2015
<rdf:RDF>
  <cc:Work
     rdf:about="">
    <dc:format>image/svg+xml</dc:format>
    <dc:type
       rdf:resource="http://purl.org/dc/dcmitype/StillImage" />
    <dc:title></dc:title>
  </cc:Work>
</rdf:RDF>
</metadata>
  <path
     d="m 281.12891,21.953125 c -0.14411,0.0075 -0.23047,0.02344 -0.25391,0.04687 -0.125,0.125 -4.75,0.5 -10.25,0.875 -37.75,2.75 -77.625,25.25 -102,57.5 -10.75,14.25 -21.375,37.25 -24.25,52.25 -0.375,1.625 -0.875,4.375 -1.25,6.125 -1.375,7.125 -2.625,17.875 -3.625,30.625 -0.375,4.125 -1,12 -1.5,17.5 -0.375,5.5 -0.875,33 -1.125,61.25 -0.25,58.875 0,57.375 -10.25,61.25 -3.25,1.125 -9.875,4.125 -14.75,6.5 -29.875,15 -41,34.875 -45,80.375 -1.5,16.875 -1.875,20.5 -3,30 -0.75,5.125 -1.5,12 -1.875,15.25 -1.375,11.75 -2.25,17.875 -2.75,21.125 -0.5,3.5 1.75,5.75 15.375,15.25 12.75,8.875 44.25,25.875 59.75,32 4.125,1.625 8.5,3.5 13.125,5.5 19.125,8.125 61.125,17.75 93.75,21.375 28.375,3.25 45.625,3.25 79.375,0.125 28.75,-2.625 79.5,-14.25 93.125,-21.25 2.125,-1.125 3.75,-1.625 3.75,-1.375 0,1.125 39.375,-17.625 51.25,-24.375 9.875,-5.75 19.625,-12.125 27.875,-18.375 6.125,-4.625 7,-5.875 6.625,-8.75 -0.375,-1.875 -1,-6.5 -1.375,-10.25 -0.375,-3.75 -1,-8.25 -1.25,-10 -1,-7 -3.125,-27.25 -5,-46.875 -2.5,-26.5 -7.875,-45.25 -16.5,-57.125 -7.875,-10.875 -22.125,-20.875 -39.5,-27.625 -7.75,-3 -10.25,-4.625 -11.75,-7.625 -1.75,-3.375 -2.125,-11.125 -2.375,-55.125 -0.125,-28.25 -0.625,-55.5 -1,-60.625 -1,-13.75 -2.125,-26.375 -2.625,-30 -0.25,-1.75 -0.75,-6.375 -1.25,-10.5 C 418.5,127.125 409.75,103.875 397.875,86 390.5,74.875 373.375,57.375 362.5,49.75 345.25,37.625 320.625,26.75 305,24.5 298.32031,23.445313 283.29047,21.840515 281.12891,21.953125 Z M 267.2168,157.75391 c 15.06445,0.0352 44.87695,0.80859 47.4082,1.37109 1.375,0.375 5.375,1.125 8.75,1.625 8.125,1.125 8.5,1.25 18.25,3.625 L 350,166.5 350.125,178 c 0.125,12.875 0.125,17 0,49.75 l -0.125,23.5 -4.625,5.125 c -6.625,7.375 -23.5,20.125 -32.25,24.625 -20.5,10.25 -44.875,10 -65.125,-0.625 -7.75,-4.125 -24.25,-16.875 -30.125,-23.25 l -5.375,-5.875 -0.125,-24 c -0.125,-40.5 0.25,-59.125 1.125,-60 2,-1.875 23.75,-6.625 36.75,-8 4.375,-0.375 8.125,-1 8.375,-1.25 0.1875,-0.1875 3.57031,-0.25781 8.5918,-0.24609 z"
     style="fill:#000000;stroke:none"
     transform="scale(0.8,0.8)"
     id="path3416" />
</svg>
