<?xml version="1.0" encoding="UTF-8" standalone="no"?>
<svg
   xmlns:dc="http://purl.org/dc/elements/1.1/"
   xmlns:cc="http://creativecommons.org/ns#"
   xmlns:rdf="http://www.w3.org/1999/02/22-rdf-syntax-ns#"
   xmlns:svg="http://www.w3.org/2000/svg"
   xmlns="http://www.w3.org/2000/svg"
   id="svg3493"
   preserveAspectRatio="xMidYMid meet"
   viewBox="0 0 450.000000 450.000000"
   height="450.000000pt"
   width="450.000000pt"
   version="1.0">
  <defs
     id="defs3503" />
  <metadata
     id="metadata3495">
Created by potrace 1.13, written by Peter Selinger 2001-2015
<rdf:RDF>
  <cc:Work
     rdf:about="">
    <dc:format>image/svg+xml</dc:format>
    <dc:type
       rdf:resource="http://purl.org/dc/dcmitype/StillImage" />
    <dc:title></dc:title>
  </cc:Work>
</rdf:RDF>
</metadata>
  <path
     d="M 283.57812,19.328125 C 271.375,19.25 258.875,19.5 255,20.125 c -21.5,3.5 -46.125,17 -63.5,34.75 -15.5,15.75 -22.875,29.375 -29.625,54 -5,18.5 -4.875,18 -7.75,18 -1.5,0 -3.125,0.5 -3.625,0.875 -0.5,0.5 -0.75,7.25 -0.75,15 0,19.875 -0.25,18.5 4.125,18.5 l 3.75,0 -0.75,8.375 C 153,212.5 144.875,254 131.625,299.25 L 128,311.625 121.875,314 c -20.625,7.875 -36,19.375 -43.875,32.875 -10.5,18 -14.25,43.375 -16,107.75 l -0.25,10.25 8.875,8.5 c 13,12.5 15.75,14.75 30.625,24.75 31.25,20.875 73.125,37.125 107.375,41.25 3.75,0.5 7.875,1.125 9.375,1.375 7.625,1.5 29.25,2.375 64.5,2.375 49.875,0 55.75,-0.5 93.25,-7.625 5.75,-1.125 28.875,-8.375 36,-11.375 31,-12.875 57.75,-30 77.75,-49.75 l 10.125,-10 -0.25,-10.625 c -0.625,-18.125 -1.875,-43.5 -2.5,-49.75 -0.375,-3.25 -0.875,-8.75 -1.125,-12.125 -2.25,-25.25 -10.25,-46.25 -22.25,-57.5 -7.375,-7.125 -23.625,-17.125 -32.375,-20 -6.375,-2.125 -8,-4 -9.125,-10.125 -0.375,-2 -1.25,-5 -1.875,-6.75 -0.75,-1.75 -2.375,-7.625 -3.875,-13.125 -1.5,-5.5 -3,-10.875 -3.375,-11.875 -0.375,-1 -0.875,-2.75 -1,-3.75 -0.125,-1 -0.625,-3.375 -1.125,-5.375 -0.375,-1.875 -1,-4.875 -1.5,-6.75 -0.375,-1.875 -0.875,-3.625 -1.125,-4 -0.25,-0.5 -1.625,-7.25 -3,-15.125 -1.5,-7.875 -2.875,-15.75 -3.25,-17.5 -0.375,-1.75 -0.875,-5.375 -1.25,-8.125 -0.375,-2.75 -0.875,-6.25 -1.125,-7.75 -0.375,-1.5 -0.875,-6 -1.375,-10 -0.375,-4 -1,-9.5 -1.25,-12.25 -0.375,-2.75 -0.875,-8.5 -1.25,-12.875 l -0.75,-7.75 3.875,0 3.75,0 0,-16.875 c 0,-17.875 0,-17.75 -5.875,-17 -0.875,0.125 -1.625,-0.25 -1.75,-0.75 -0.75,-7.75 -6.375,-26.875 -11.25,-38.75 -8.125,-19.375 -23.125,-37 -42.375,-49.5 -17.125,-11 -22.625,-13.5 -40.875,-17.875 -2.6875,-0.6875 -14.59375,-1.09375 -26.79688,-1.171875 z M 280.9082,46.84375 c 6.97724,0.02274 14.36524,0.703125 22.2168,2.03125 19.75,3.375 47.375,23.5 58.625,42.75 5.25,9 13,34.5 11,36.5 -0.375,0.375 -41.625,0.625 -91.75,0.625 l -91,0 0,-3.5 c 0,-5.875 5,-21.75 9.75,-30.75 7.75,-14.875 22,-28.25 40.5,-38.125 11.94531,-6.445312 25.30829,-9.581268 40.6582,-9.53125 z M 186.375,165 190,165 190,274.5 190,383.875 166.625,368 c -13,-8.75 -24,-16.25 -24.5,-16.75 -0.625,-0.5 1.75,-9.5 5.25,-20.125 17.375,-53.375 26.375,-94.625 34.5,-159.625 0.875,-6.125 1,-6.5 4.5,-6.5 z m 186.125,0 3.75,0 c 2.125,0 3.75,0.5 3.75,1 0,6.125 7.375,54.375 12,78.375 5.375,27.5 15.625,66 25.5,94.875 2,6.125 3.625,11.25 3.375,11.375 -0.75,0.75 -45.5,31.5 -46.75,32.25 C 372.875,383.75 372.5,361.75 372.5,274.5 l 0,-109.5 z m -33.625,2.75 3.75,3.625 3.875,3.625 0,42 c -0.125,46.75 0.5,43.25 -9.625,53.25 -11.375,11.25 -30.125,20 -47.125,22 -25.125,3 -57.25,-10.5 -70.125,-29.5 l -3.125,-4.625 0,-41.25 0,-41.25 3.75,-3.875 3.625,-3.875 57.5,0 57.5,-0.125 z m -17.75,139.375 5.625,2.125 c 8,3 10.75,7 10.75,15.25 0,12.5 -10.75,40.125 -28.625,73 -9.25,17.25 -15.5,26.25 -23,33.5 l -4.25,4.125 -7,-7.625 c -8.25,-8.875 -16.125,-21.875 -28.875,-47.375 -15.375,-30.625 -22,-50.125 -20.25,-59.5 1.25,-6.5 8.5,-12.25 16.25,-13 0.75,-0.125 6.375,2.375 12.5,5.5 20,9.875 33.875,9.875 54.625,-0.125 l 12.25,-5.875 z m -111.25,46.5 5.875,0.375 5.75,0.375 4.625,13.125 c 13,36.875 21.125,50.875 41.375,71.625 l 14.375,14.875 13.75,-14.125 c 20,-20.5 28,-34.625 40.625,-70.875 l 5.375,-15.25 6.125,0 6.125,0 -0.625,6.5 C 352,373 351,409.5 351.875,414.125 c 1.375,6.875 5.375,9.25 12.25,7.25 5.5,-1.625 25.75,-13.5 36.75,-21.625 7.875,-5.75 33.25,-26.5 42.75,-35 3.75,-3.25 7.5,-6 8.375,-6 1.75,0 6.375,6.875 11.625,17.25 6.625,13.125 7.625,20 7.625,53.375 l 0,30 -13.25,9.75 c -25.625,19.25 -55.875,35.75 -77.5,42.5 -27.875,8.75 -56,11.375 -110.5,10.5 C 207.5,521 184.875,516.375 146.625,496.25 132,488.625 109.25,473.875 97.25,464.375 L 90,458.75 l 0,-28.5 c 0,-31.75 1.25,-40.375 7.375,-52.625 4.625,-9.25 11,-18.875 12.75,-18.875 0.625,0 5.375,3.625 10.375,8 27.5,23.875 50.25,40.5 69.25,50.375 11.625,6 15.25,6.625 19.25,2.625 2.625,-2.625 2.625,-3 1.75,-34.375 l -0.875,-31.75 z"
     style="fill:#000000;stroke:none"
     transform="scale(0.8,0.8)"
     id="path3499" />
</svg>
